<svg t="1588059073335" class="icon" viewBox="0 0 1024 1024" version="1.1" xmlns="http://www.w3.org/2000/svg" p-id="1954" width="200" height="200"><path d="M870.4 358.4H665.6A102.4 102.4 0 0 1 563.2 256V51.2H204.8a51.2 51.2 0 0 0-51.2 51.2v819.2a51.2 51.2 0 0 0 51.2 51.2h614.4a51.2 51.2 0 0 0 51.2-51.2V358.4z m-21.197-51.2L614.4 72.397V256a51.2 51.2 0 0 0 51.2 51.2h183.603zM572.006 0a102.4 102.4 0 0 1 72.397 30.003l247.194 247.194a102.4 102.4 0 0 1 30.003 72.397V921.6A102.4 102.4 0 0 1 819.2 1024H204.8a102.4 102.4 0 0 1-102.4-102.4V102.4A102.4 102.4 0 0 1 204.8 0h367.206z" p-id="1955"></path></svg>